<?xml version="1.0" encoding="UTF-8" standalone="no"?>
<!-- Generator: Adobe Illustrator 15.0.0, SVG Export Plug-In . SVG Version: 6.00 Build 0)  -->

<svg
   xmlns:dc="http://purl.org/dc/elements/1.1/"
   xmlns:cc="http://creativecommons.org/ns#"
   xmlns:rdf="http://www.w3.org/1999/02/22-rdf-syntax-ns#"
   xmlns:svg="http://www.w3.org/2000/svg"
   xmlns="http://www.w3.org/2000/svg"
   xmlns:sodipodi="http://sodipodi.sourceforge.net/DTD/sodipodi-0.dtd"
   xmlns:inkscape="http://www.inkscape.org/namespaces/inkscape"
   version="1.1"
   id="Layer_1"
   x="0px"
   y="0px"
   width="20px"
   height="20px"
   viewBox="0 0 20 20"
   style="enable-background:new 0 0 20 20;"
   xml:space="preserve"
   inkscape:version="0.48.5 r10040"
   sodipodi:docname="icon-bus-grey.svg"><metadata
   id="metadata3481"><rdf:RDF><cc:Work
       rdf:about=""><dc:format>image/svg+xml</dc:format><dc:type
         rdf:resource="http://purl.org/dc/dcmitype/StillImage" /><dc:title></dc:title></cc:Work></rdf:RDF></metadata><defs
   id="defs3479" /><sodipodi:namedview
   pagecolor="#ffffff"
   bordercolor="#666666"
   borderopacity="1"
   objecttolerance="10"
   gridtolerance="10"
   guidetolerance="10"
   inkscape:pageopacity="0"
   inkscape:pageshadow="2"
   inkscape:window-width="1920"
   inkscape:window-height="1148"
   id="namedview3477"
   showgrid="false"
   inkscape:zoom="11.8"
   inkscape:cx="10"
   inkscape:cy="10"
   inkscape:window-x="1912"
   inkscape:window-y="-8"
   inkscape:window-maximized="1"
   inkscape:current-layer="Layer_1" />
<g
   id="g3467">
	<path
   style="fill:#60656A;"
   d="M4.126,20h0.597c0.218-0.037,0.325-0.217,0.325-0.217v-1.015h-0.88H3.923H2.726v1.015   c0,0,0.11,0.18,0.327,0.217h0.909H4.126z"
   id="path3469" />
	<polygon
   style="fill:#60656A;"
   points="11.316,18.551 17.99,18.551 17.99,16.13 11.123,16.13 10.32,16.13 2.01,16.13 2.01,18.551    10.32,18.551  "
   id="polygon3471" />
	<path
   style="fill:#60656A;"
   d="M15.873,20h-0.594c-0.219-0.037-0.326-0.217-0.326-0.217v-1.015h0.881h0.246h1.195v1.015   c0,0-0.107,0.18-0.328,0.217h-0.906H15.873z"
   id="path3473" />
	<path
   style="fill:#60656A;"
   d="M15.477,0h-4.668h-0.598H4.523c0,0-2.247,0.111-2.499,1.559v14.348h8.368h0.514h7.07V1.559   C17.725,0.111,15.477,0,15.477,0z M5.066,0.835h5.169h0.933h3.766v1.956h-3.74h-0.958H5.066V0.835L5.066,0.835z M3.401,15.107   c-0.4,0-0.727-0.323-0.727-0.724s0.326-0.725,0.727-0.725c0.399,0,0.724,0.324,0.724,0.725S3.801,15.107,3.401,15.107z    M5.212,15.107c-0.4,0-0.724-0.323-0.724-0.724s0.323-0.725,0.724-0.725c0.399,0,0.725,0.324,0.725,0.725   S5.613,15.107,5.212,15.107z M11.951,10.626c0.283-0.537,0.957-0.916,1.74-0.916c0.781,0,1.453,0.379,1.736,0.916H11.951z    M14.789,15.107c-0.4,0-0.723-0.323-0.723-0.724s0.322-0.725,0.723-0.725s0.727,0.324,0.727,0.725S15.189,15.107,14.789,15.107z    M16.6,15.107c-0.4,0-0.725-0.323-0.725-0.724s0.324-0.725,0.725-0.725s0.725,0.324,0.725,0.725S17,15.107,16.6,15.107z    M17.334,10.218c0,0.225-0.18,0.409-0.408,0.409h-1.035c-0.293-0.779-1.164-1.352-2.199-1.352c-1.039,0-1.908,0.571-2.205,1.352   h-8.41c-0.226,0-0.41-0.184-0.41-0.409V4.131c0-0.226,0.183-0.409,0.41-0.409h13.852c0.227,0,0.406,0.184,0.406,0.409V10.218   L17.334,10.218z"
   id="path3475" />
</g>
</svg>