<?xml version="1.0" encoding="UTF-8" standalone="no"?>
<!-- Generated by IcoMoon.io -->

<svg
   xmlns:dc="http://purl.org/dc/elements/1.1/"
   xmlns:cc="http://creativecommons.org/ns#"
   xmlns:rdf="http://www.w3.org/1999/02/22-rdf-syntax-ns#"
   xmlns:svg="http://www.w3.org/2000/svg"
   xmlns="http://www.w3.org/2000/svg"
   xmlns:xlink="http://www.w3.org/1999/xlink"
   xmlns:sodipodi="http://sodipodi.sourceforge.net/DTD/sodipodi-0.dtd"
   xmlns:inkscape="http://www.inkscape.org/namespaces/inkscape"
   version="1.1"
   width="32"
   height="32"
   viewBox="0 0 32 32"
   id="svg3261"
   inkscape:version="0.48.5 r10040"
   sodipodi:docname="tick.svg">
  <metadata
     id="metadata3272">
    <rdf:RDF>
      <cc:Work
         rdf:about="">
        <dc:format>image/svg+xml</dc:format>
        <dc:type
           rdf:resource="http://purl.org/dc/dcmitype/StillImage" />
        <dc:title></dc:title>
      </cc:Work>
    </rdf:RDF>
  </metadata>
  <defs
     id="defs3270">
    <linearGradient
       id="SVGID_1_"
       gradientUnits="userSpaceOnUse"
       x1="546.25012"
       y1="302.3526"
       x2="510.8364"
       y2="337.7662">
      <stop
         offset="0.35"
         style="stop-color:#FFFFFF;stop-opacity:0"
         id="stop3155" />
      <stop
         offset="1"
         style="stop-color:#A6A6A6;stop-opacity:0.5"
         id="stop3157" />
    </linearGradient>
    <linearGradient
       inkscape:collect="always"
       xlink:href="#SVGID_1_"
       id="linearGradient3447"
       gradientUnits="userSpaceOnUse"
       x1="546.25012"
       y1="302.3526"
       x2="510.8364"
       y2="337.7662" />
  </defs>
  <sodipodi:namedview
     pagecolor="#ffffff"
     bordercolor="#666666"
     borderopacity="1"
     objecttolerance="10"
     gridtolerance="10"
     guidetolerance="10"
     inkscape:pageopacity="0"
     inkscape:pageshadow="2"
     inkscape:window-width="1920"
     inkscape:window-height="1148"
     id="namedview3268"
     showgrid="false"
     inkscape:zoom="1.84375"
     inkscape:cx="-48.813559"
     inkscape:cy="132.27532"
     inkscape:window-x="1912"
     inkscape:window-y="-8"
     inkscape:window-maximized="1"
     inkscape:current-layer="svg3261" />
  <g
     id="icomoon-ignore">
    <line
       x1=""
       y1=""
       x2=""
       y2=""
       opacity=""
       id="line3264"
       stroke-width="1"
       stroke="#449FDB" />
  </g>
  <g
     transform="matrix(0.74418605,0,0,0.74418605,-359.73954,-272.7814)"
     id="departs_-_timer">
    <g
       id="departs_timer_2_">
      <g
         id="g3149">
        <path
           inkscape:connector-curvature="0"
           d="m 506.9,368 c 0,0 -0.1,0 -0.1,0 -1.1,0 -1.9,0.9 -1.9,2.1 0,1.1 0.4,2.1 2.2,2.1 v 0 c 8.2,0.1 15.3,7.2 15.3,15.8 0,8.7 -7.1,15.9 -15.7,15.9 -8.2,0 -15.1,-6.3 -15.7,-14.5 h 3.6 l -5.6,-9.4 -5.6,9.4 h 3.4 c 0.6,10.4 9.2,18.7 19.8,18.7 10.9,0 19.8,-9 19.8,-20 -0.1,-10.9 -8.8,-19.9 -19.5,-20.1 z m -4.5,28.1 5.6,-5.7 c 0,0 0.1,-0.1 0.1,-0.1 0.3,-0.3 0.5,-0.8 0.5,-1.2 v -11.3 h 0 c 0,-1 -0.8,-1.8 -1.8,-1.8 h -0.4 c -1,0 -1.7,0.8 -1.7,1.8 v 10.5 l -5.1,5.1 c -0.8,0.8 -0.7,2 0,2.7 0.8,0.8 2.1,0.8 2.8,0 z"
           id="path3151" />
      </g>
    </g>
  </g>
</svg>
