<?xml version="1.0" encoding="UTF-8" standalone="no"?>
<!-- Generated by IcoMoon.io -->

<svg
   xmlns:dc="http://purl.org/dc/elements/1.1/"
   xmlns:cc="http://creativecommons.org/ns#"
   xmlns:rdf="http://www.w3.org/1999/02/22-rdf-syntax-ns#"
   xmlns:svg="http://www.w3.org/2000/svg"
   xmlns="http://www.w3.org/2000/svg"
   xmlns:xlink="http://www.w3.org/1999/xlink"
   xmlns:sodipodi="http://sodipodi.sourceforge.net/DTD/sodipodi-0.dtd"
   xmlns:inkscape="http://www.inkscape.org/namespaces/inkscape"
   version="1.1"
   width="32"
   height="32"
   viewBox="0 0 32 32"
   id="svg3261"
   inkscape:version="0.48.5 r10040"
   sodipodi:docname="clock.svg">
  <metadata
     id="metadata3272">
    <rdf:RDF>
      <cc:Work
         rdf:about="">
        <dc:format>image/svg+xml</dc:format>
        <dc:type
           rdf:resource="http://purl.org/dc/dcmitype/StillImage" />
        <dc:title></dc:title>
      </cc:Work>
    </rdf:RDF>
  </metadata>
  <defs
     id="defs3270">
    <linearGradient
       id="SVGID_1_"
       gradientUnits="userSpaceOnUse"
       x1="546.25012"
       y1="302.3526"
       x2="510.8364"
       y2="337.7662">
      <stop
         offset="0.35"
         style="stop-color:#FFFFFF;stop-opacity:0"
         id="stop3155" />
      <stop
         offset="1"
         style="stop-color:#A6A6A6;stop-opacity:0.5"
         id="stop3157" />
    </linearGradient>
    <linearGradient
       inkscape:collect="always"
       xlink:href="#SVGID_1_"
       id="linearGradient3447"
       gradientUnits="userSpaceOnUse"
       x1="546.25012"
       y1="302.3526"
       x2="510.8364"
       y2="337.7662" />
  </defs>
  <sodipodi:namedview
     pagecolor="#ffffff"
     bordercolor="#666666"
     borderopacity="1"
     objecttolerance="10"
     gridtolerance="10"
     guidetolerance="10"
     inkscape:pageopacity="0"
     inkscape:pageshadow="2"
     inkscape:window-width="1920"
     inkscape:window-height="1148"
     id="namedview3268"
     showgrid="false"
     inkscape:zoom="1.84375"
     inkscape:cx="-48.813559"
     inkscape:cy="132.27532"
     inkscape:window-x="1912"
     inkscape:window-y="-8"
     inkscape:window-maximized="1"
     inkscape:current-layer="svg3261" />
  <g
     id="icomoon-ignore">
    <line
       x1=""
       y1=""
       x2=""
       y2=""
       opacity=""
       id="line3264"
       stroke-width="1"
       stroke="#449FDB" />
  </g>
  <g
     transform="matrix(0.71111111,0,0,0.71111111,-404.90667,-259.91111)"
     id="info_1_">
    <path
       inkscape:connector-curvature="0"
       id="info_2_"
       d="m 591.9,365.5 c -12.4,0 -22.5,10.1 -22.5,22.5 0,12.4 10.1,22.5 22.5,22.5 12.4,0 22.5,-10.1 22.5,-22.5 0,-12.4 -10.1,-22.5 -22.5,-22.5 z m 0,10.2 c 0.5,-0.5 1.1,-0.8 1.8,-0.8 0.6,0 1.1,0.2 1.5,0.6 0.4,0.4 0.6,0.9 0.6,1.5 0,0.7 -0.3,1.4 -0.8,2 -0.5,0.6 -1.1,0.9 -1.8,0.9 -0.6,0 -1.1,-0.2 -1.4,-0.6 -0.4,-0.4 -0.6,-0.9 -0.6,-1.5 -0.1,-0.9 0.2,-1.6 0.7,-2.1 z m 3.7,21.2 c -1.9,1.8 -3.2,2.8 -4.1,3.3 -0.9,0.5 -1.7,0.8 -2.3,0.8 -0.6,0 -1.2,-0.2 -1.6,-0.6 -0.4,-0.4 -0.6,-1 -0.6,-1.6 0,-1.7 1,-5.7 3,-12.2 0,-0.1 0.1,-0.2 0.1,-0.3 -0.1,0 -0.2,0.1 -0.3,0.1 -0.2,0.1 -0.7,0.5 -2.1,1.9 -0.2,0.2 -0.6,0.2 -0.8,0 l -0.9,-0.7 c -0.1,-0.1 -0.2,-0.3 -0.2,-0.4 0,-0.2 0,-0.3 0.2,-0.5 1.4,-1.5 2.6,-2.6 3.8,-3.2 1.2,-0.7 2.2,-1 3.1,-1 0.6,0 1,0.1 1.4,0.4 0.4,0.3 0.6,0.7 0.6,1.2 0,0.3 -0.2,1.2 -1.3,5 -1.6,5.5 -2,7.5 -2.1,8.2 0.3,-0.2 1,-0.7 2.6,-2.2 0.2,-0.2 0.6,-0.2 0.9,0 l 0.8,0.8 c 0.1,0.1 0.2,0.3 0.2,0.5 -0.2,0.2 -0.2,0.4 -0.4,0.5 z" />
  </g>
</svg>
