<?xml version="1.0" encoding="UTF-8" standalone="no"?>
<!-- Generated by IcoMoon.io -->

<svg
   xmlns:dc="http://purl.org/dc/elements/1.1/"
   xmlns:cc="http://creativecommons.org/ns#"
   xmlns:rdf="http://www.w3.org/1999/02/22-rdf-syntax-ns#"
   xmlns:svg="http://www.w3.org/2000/svg"
   xmlns="http://www.w3.org/2000/svg"
   xmlns:xlink="http://www.w3.org/1999/xlink"
   xmlns:sodipodi="http://sodipodi.sourceforge.net/DTD/sodipodi-0.dtd"
   xmlns:inkscape="http://www.inkscape.org/namespaces/inkscape"
   version="1.1"
   width="32"
   height="32"
   viewBox="0 0 32 32"
   id="svg3261"
   inkscape:version="0.48.5 r10040"
   sodipodi:docname="tick.svg">
  <metadata
     id="metadata3272">
    <rdf:RDF>
      <cc:Work
         rdf:about="">
        <dc:format>image/svg+xml</dc:format>
        <dc:type
           rdf:resource="http://purl.org/dc/dcmitype/StillImage" />
        <dc:title></dc:title>
      </cc:Work>
    </rdf:RDF>
  </metadata>
  <defs
     id="defs3270">
    <linearGradient
       id="SVGID_1_"
       gradientUnits="userSpaceOnUse"
       x1="546.25012"
       y1="302.3526"
       x2="510.8364"
       y2="337.7662">
      <stop
         offset="0.35"
         style="stop-color:#FFFFFF;stop-opacity:0"
         id="stop3155" />
      <stop
         offset="1"
         style="stop-color:#A6A6A6;stop-opacity:0.5"
         id="stop3157" />
    </linearGradient>
    <linearGradient
       inkscape:collect="always"
       xlink:href="#SVGID_1_"
       id="linearGradient3447"
       gradientUnits="userSpaceOnUse"
       x1="546.25012"
       y1="302.3526"
       x2="510.8364"
       y2="337.7662" />
  </defs>
  <sodipodi:namedview
     pagecolor="#ffffff"
     bordercolor="#666666"
     borderopacity="1"
     objecttolerance="10"
     gridtolerance="10"
     guidetolerance="10"
     inkscape:pageopacity="0"
     inkscape:pageshadow="2"
     inkscape:window-width="1920"
     inkscape:window-height="1148"
     id="namedview3268"
     showgrid="false"
     inkscape:zoom="1.84375"
     inkscape:cx="-48.813559"
     inkscape:cy="110.5804"
     inkscape:window-x="1912"
     inkscape:window-y="-8"
     inkscape:window-maximized="1"
     inkscape:current-layer="svg3261" />
  <g
     id="icomoon-ignore">
    <line
       x1=""
       y1=""
       x2=""
       y2=""
       opacity=""
       id="line3264"
       stroke-width="1"
       stroke="#449FDB" />
  </g>
  <g
     transform="matrix(0.96676737,0,0,0.96676737,-397.7281,-359.15408)"
     id="search_2_">
    <g
       id="search">
      <g
         id="g3143">
        <path
           inkscape:connector-curvature="0"
           d="m 444.4,402.1 -8.9,-9 c 1.7,-2.3 2.8,-5.1 2.8,-8.1 0,-7.4 -6,-13.5 -13.4,-13.5 -7.4,0 -13.4,6 -13.4,13.5 0,7.4 6,13.5 13.4,13.5 3.1,0 6,-1.1 8.3,-2.9 l 8.9,9 2.3,-2.5 z m -19.6,-6.7 c -5.7,0 -10.4,-4.7 -10.4,-10.4 0,-5.8 4.7,-10.4 10.4,-10.4 5.7,0 10.4,4.7 10.4,10.4 0,5.8 -4.7,10.4 -10.4,10.4 z"
           id="path3145" />
      </g>
    </g>
  </g>
</svg>
