<?xml version="1.0" encoding="UTF-8" standalone="no"?>
<!-- Generated by IcoMoon.io -->

<svg
   xmlns:dc="http://purl.org/dc/elements/1.1/"
   xmlns:cc="http://creativecommons.org/ns#"
   xmlns:rdf="http://www.w3.org/1999/02/22-rdf-syntax-ns#"
   xmlns:svg="http://www.w3.org/2000/svg"
   xmlns="http://www.w3.org/2000/svg"
   xmlns:sodipodi="http://sodipodi.sourceforge.net/DTD/sodipodi-0.dtd"
   xmlns:inkscape="http://www.inkscape.org/namespaces/inkscape"
   version="1.1"
   width="32"
   height="32"
   viewBox="0 0 32 32"
   id="svg3261"
   inkscape:version="0.48.5 r10040"
   sodipodi:docname="master.svg">
  <metadata
     id="metadata3272">
    <rdf:RDF>
      <cc:Work
         rdf:about="">
        <dc:format>image/svg+xml</dc:format>
        <dc:type
           rdf:resource="http://purl.org/dc/dcmitype/StillImage" />
        <dc:title />
      </cc:Work>
    </rdf:RDF>
  </metadata>
  <defs
     id="defs3270">
    <linearGradient
       id="SVGID_1_"
       gradientUnits="userSpaceOnUse"
       x1="546.25012"
       y1="302.3526"
       x2="510.8364"
       y2="337.7662"
       gradientTransform="matrix(0.56093582,0,0,0.56093582,550.95769,128.59564)">
      <stop
         offset="0.35"
         style="stop-color:#FFFFFF;stop-opacity:0"
         id="stop3155" />
      <stop
         offset="1"
         style="stop-color:#A6A6A6;stop-opacity:0.5"
         id="stop3157" />
    </linearGradient>
  </defs>
  <sodipodi:namedview
     pagecolor="#ffffff"
     bordercolor="#666666"
     borderopacity="1"
     objecttolerance="10"
     gridtolerance="10"
     guidetolerance="10"
     inkscape:pageopacity="0"
     inkscape:pageshadow="2"
     inkscape:window-width="1920"
     inkscape:window-height="1148"
     id="namedview3268"
     showgrid="false"
     inkscape:zoom="1.84375"
     inkscape:cx="-111.45763"
     inkscape:cy="23.800739"
     inkscape:window-x="1912"
     inkscape:window-y="-8"
     inkscape:window-maximized="1"
     inkscape:current-layer="svg3261" />
  <g
     id="icomoon-ignore"
     transform="translate(-125.94963,19.552686)">
    <line
       x1="0"
       y1="0"
       x2="0"
       y2="0"
       opacity=""
       id="line3264"
       style="stroke:#449fdb;stroke-width:1" />
  </g>
  <g
     transform="matrix(0.71111111,0,0,0.71111111,-423.33186,-345.81176)"
     id="my_location">
    <path
       inkscape:connector-curvature="0"
       d="m 352.1,427.8 c 11,0 20,9 20,20 0,11 -9,20 -20,20 -11,0 -20,-9 -20,-20 0,-11 9,-20 20,-20"
       id="path3117" />
    <g
       id="g3119">
      <path
         style="fill:#ffffff"
         inkscape:connector-curvature="0"
         d="m 352.1,437.4 0,0 c -3.9,0 -7.1,3.3 -7.1,7.2 0,4 3.2,7.3 7.1,7.2 h 0 c 3.9,0 7.1,-3.2 7.1,-7.2 0,-3.9 -3.2,-7.1 -7.1,-7.2 z"
         id="path3121" />
      <path
         style="fill:#ffffff"
         inkscape:connector-curvature="0"
         d="m 352.1,425.2 c -12.4,0 -22.5,10.1 -22.5,22.5 0,12.4 10.1,22.5 22.5,22.5 12.4,0 22.5,-10.1 22.5,-22.5 0,-12.4 -10,-22.5 -22.5,-22.5 z m 15.1,35.6 c -1.7,-3.7 -4.6,-6.8 -7.7,-6.8 h -15 c -3.1,0 -5.9,3.1 -7.6,6.7 -3,-3.5 -4.8,-8 -4.8,-13 0,-11 9,-20 20,-20 11,0 20,9 20,20 0,5.1 -1.8,9.6 -4.9,13.1 z"
         id="path3123" />
    </g>
  </g>
  <g
     transform="matrix(0.32619776,0,0,0.32619776,-170.17083,-110.7042)"
     id="bus_1_">
    <path
       inkscape:connector-curvature="0"
       id="bus"
       d="m 315.5,76.5 c -1.1,-5.4 -4.3,-7.6 -9.5,-9.7 -5.1,-2.1 -16.6,-4.7 -25.7,-4.7 -9.1,0.1 -21.7,2.6 -26.9,4.7 -5.2,2.1 -8.1,4.3 -9.2,9.7 l -4.6,29.8 v 41.3 h 7.5 v 6.3 c 0,8.4 10.5,8.4 10.5,0 v -6.3 h 44 v 6.3 c 0,8.4 10.5,8.4 10.5,0 v -6.3 h 7.6 v -41.3 l -4.2,-29.8 z m -51.6,-6.2 h 31.4 c 4.2,0 4.2,4.2 0,4.2 h -31.4 c -4.2,-0.1 -4.2,-4.2 0,-4.2 z m -11.6,64.3 c -3,0 -5.5,-2.5 -5.5,-5.6 0,-3 2.5,-5.5 5.5,-5.5 3.1,0 5.6,2.5 5.6,5.5 -0.1,3.1 -2.6,5.6 -5.6,5.6 z M 250.1,110 c -2.9,0 -3.5,-2.3 -3.2,-4.4 l 3,-22.2 c 0.4,-2.6 1.3,-4.8 4.8,-4.8 h 50 c 3.4,0 4.3,2.1 4.8,4.7 l 3,22.1 c 0.3,2.1 -0.3,4.5 -3.2,4.5 h -59.2 z m 56.9,24.6 c -3,0 -5.5,-2.5 -5.5,-5.6 0,-3 2.5,-5.5 5.5,-5.5 3.1,0 5.6,2.5 5.6,5.5 -0.1,3.1 -2.6,5.6 -5.6,5.6 z" />
  </g>
  <g
     transform="matrix(1.0675563,0,0,1.0675563,-421.60935,-318.26383)"
     id="nav_-_back_1_">
    <g
       id="nav_-_back_3_">
      <g
         id="g3129">
        <path
           style="fill-rule:evenodd"
           inkscape:connector-curvature="0"
           clip-rule="evenodd"
           d="M 275.1,228.3 285.3,218 c 0.8,-0.8 0.8,-2.2 0,-3 l -1,-1 c -0.8,-0.8 -2.2,-0.8 -3,0 l -11.4,11.5 c -0.1,0.1 -0.2,0.2 -0.3,0.3 l -1,1 c -0.4,0.4 -0.6,0.9 -0.6,1.4 0,0 0,0.1 0,0.1 0,0.6 0.2,1.1 0.6,1.5 l 12.6,12.9 c 0.8,0.9 2.2,0.9 3,0 l 1,-1 c 0.8,-0.9 0.8,-2.2 0,-3.1 l -10.1,-10.3 z"
           id="path3131" />
      </g>
    </g>
  </g>
  <g
     transform="matrix(1.0596026,0,0,1.0596026,-453.62511,-363.46055)"
     id="nav_-_add_stop_1_">
    <g
       id="nav_-_add_stop">
      <g
         id="g3135">
        <path
           style="fill-rule:evenodd"
           inkscape:connector-curvature="0"
           clip-rule="evenodd"
           d="M 367.2,225 H 357 v -10.2 c 0,-0.8 -0.6,-1.5 -1.5,-1.5 h -3.8 c -0.8,0 -1.5,0.6 -1.5,1.5 V 225 H 340 c -0.8,0 -1.5,0.6 -1.5,1.5 v 3.8 c 0,0.8 0.6,1.5 1.5,1.5 h 10.2 V 242 c 0,0.8 0.6,1.5 1.5,1.5 h 3.8 c 0.8,0 1.5,-0.6 1.5,-1.5 v -10.2 h 10.2 c 0.8,0 1.5,-0.6 1.5,-1.5 v -3.8 c 0,-0.9 -0.7,-1.5 -1.5,-1.5 z"
           id="path3137" />
      </g>
    </g>
  </g>
  <g
     transform="matrix(0.58171458,0,0,0.58171458,-381.0264,-254.36879)"
     id="remove_1_">
    <path
       inkscape:connector-curvature="0"
       id="remove_2_"
       d="m 277.7,281.8 c -15.2,-0.4 -27.8,11.5 -28.3,26.7 0,0.3 0,0.5 0,0.8 0,15.2 12.3,27.5 27.5,27.5 15.2,0 27.5,-12.3 27.5,-27.5 0,-14.8 -11.8,-27 -26.7,-27.5 z m -16.2,23.7 h 30.8 v 7.7 h -30.8 v -7.7 z" />
  </g>
  <g
     transform="matrix(0.96676737,0,0,0.96676737,-539.67773,-496.60139)"
     id="search_2_">
    <g
       id="search">
      <g
         id="g3143">
        <path
           inkscape:connector-curvature="0"
           d="m 444.4,402.1 -8.9,-9 c 1.7,-2.3 2.8,-5.1 2.8,-8.1 0,-7.4 -6,-13.5 -13.4,-13.5 -7.4,0 -13.4,6 -13.4,13.5 0,7.4 6,13.5 13.4,13.5 3.1,0 6,-1.1 8.3,-2.9 l 8.9,9 2.3,-2.5 z m -19.6,-6.7 c -5.7,0 -10.4,-4.7 -10.4,-10.4 0,-5.8 4.7,-10.4 10.4,-10.4 5.7,0 10.4,4.7 10.4,10.4 0,5.8 -4.7,10.4 -10.4,10.4 z"
           id="path3145" />
      </g>
    </g>
  </g>
  <g
     transform="matrix(0.74418605,0,0,0.74418605,-548.68917,-410.22871)"
     id="departs_-_timer">
    <g
       id="departs_timer_2_">
      <g
         id="g3149">
        <path
           inkscape:connector-curvature="0"
           d="m 506.9,368 c 0,0 -0.1,0 -0.1,0 -1.1,0 -1.9,0.9 -1.9,2.1 0,1.1 0.4,2.1 2.2,2.1 v 0 c 8.2,0.1 15.3,7.2 15.3,15.8 0,8.7 -7.1,15.9 -15.7,15.9 -8.2,0 -15.1,-6.3 -15.7,-14.5 h 3.6 l -5.6,-9.4 -5.6,9.4 h 3.4 c 0.6,10.4 9.2,18.7 19.8,18.7 10.9,0 19.8,-9 19.8,-20 -0.1,-10.9 -8.8,-19.9 -19.5,-20.1 z m -4.5,28.1 5.6,-5.7 c 0,0 0.1,-0.1 0.1,-0.1 0.3,-0.3 0.5,-0.8 0.5,-1.2 v -11.3 h 0 c 0,-1 -0.8,-1.8 -1.8,-1.8 h -0.4 c -1,0 -1.7,0.8 -1.7,1.8 v 10.5 l -5.1,5.1 c -0.8,0.8 -0.7,2 0,2.7 0.8,0.8 2.1,0.8 2.8,0 z"
           id="path3151" />
      </g>
    </g>
  </g>
  <g
     id="location_1_"
     transform="matrix(0.58152421,0,0,0.58152421,-472.32638,-158.85894)">
    <linearGradient
       id="linearGradient3313"
       gradientUnits="userSpaceOnUse"
       x1="546.25012"
       y1="302.3526"
       x2="510.8364"
       y2="337.7662">
      <stop
         offset="0.35"
         style="stop-color:#FFFFFF;stop-opacity:0"
         id="stop3315" />
      <stop
         offset="1"
         style="stop-color:#A6A6A6;stop-opacity:0.5"
         id="stop3317" />
    </linearGradient>
    <path
       clip-rule="evenodd"
       d="m 536.9,324.2 c -4.7,-0.9 -17.8,-2.2 -28.1,-1 -11.8,1.4 -3.9,8.6 -3.9,8.6 0,0 33.4,-3.5 36.4,-4.6 2.3,-0.9 0.7,-2.1 -4.4,-3 z"
       id="path3159"
       style="fill:url(#SVGID_1_);fill-rule:evenodd"
       inkscape:connector-curvature="0" />
    <path
       clip-rule="evenodd"
       d="m 504.8,281.8 c -9.7,0 -17.5,7.8 -17.5,17.3 0,9.6 17.5,32.7 17.5,32.7 0,0 17.5,-23.1 17.5,-32.7 0,-9.5 -7.8,-17.3 -17.5,-17.3 z"
       id="path3161"
       inkscape:connector-curvature="0"
       style="fill-rule:evenodd" />
    <path
       clip-rule="evenodd"
       d="m 504.8,305.7 c -3.8,0 -6.9,-3.1 -6.9,-6.9 0,-3.8 3.1,-6.9 6.9,-6.9 3.8,0 6.9,3.1 6.9,6.9 0,3.9 -3.1,6.9 -6.9,6.9 z"
       id="path3163"
       inkscape:connector-curvature="0"
       style="fill:#ffffff;fill-rule:evenodd" />
  </g>
  <g
     transform="matrix(0.71111111,0,0,0.71111111,-499.8563,-303.35843)"
     id="info_1_">
    <path
       inkscape:connector-curvature="0"
       id="info_2_"
       d="m 591.9,365.5 c -12.4,0 -22.5,10.1 -22.5,22.5 0,12.4 10.1,22.5 22.5,22.5 12.4,0 22.5,-10.1 22.5,-22.5 0,-12.4 -10.1,-22.5 -22.5,-22.5 z m 0,10.2 c 0.5,-0.5 1.1,-0.8 1.8,-0.8 0.6,0 1.1,0.2 1.5,0.6 0.4,0.4 0.6,0.9 0.6,1.5 0,0.7 -0.3,1.4 -0.8,2 -0.5,0.6 -1.1,0.9 -1.8,0.9 -0.6,0 -1.1,-0.2 -1.4,-0.6 -0.4,-0.4 -0.6,-0.9 -0.6,-1.5 -0.1,-0.9 0.2,-1.6 0.7,-2.1 z m 3.7,21.2 c -1.9,1.8 -3.2,2.8 -4.1,3.3 -0.9,0.5 -1.7,0.8 -2.3,0.8 -0.6,0 -1.2,-0.2 -1.6,-0.6 -0.4,-0.4 -0.6,-1 -0.6,-1.6 0,-1.7 1,-5.7 3,-12.2 0,-0.1 0.1,-0.2 0.1,-0.3 -0.1,0 -0.2,0.1 -0.3,0.1 -0.2,0.1 -0.7,0.5 -2.1,1.9 -0.2,0.2 -0.6,0.2 -0.8,0 l -0.9,-0.7 c -0.1,-0.1 -0.2,-0.3 -0.2,-0.4 0,-0.2 0,-0.3 0.2,-0.5 1.4,-1.5 2.6,-2.6 3.8,-3.2 1.2,-0.7 2.2,-1 3.1,-1 0.6,0 1,0.1 1.4,0.4 0.4,0.3 0.6,0.7 0.6,1.2 0,0.3 -0.2,1.2 -1.3,5 -1.6,5.5 -2,7.5 -2.1,8.2 0.3,-0.2 1,-0.7 2.6,-2.2 0.2,-0.2 0.6,-0.2 0.9,0 l 0.8,0.8 c 0.1,0.1 0.2,0.3 0.2,0.5 -0.2,0.2 -0.2,0.4 -0.4,0.5 z" />
  </g>
  <g
     transform="matrix(1.3333333,0,0,1.3333333,-691.61629,-497.91397)"
     id="next_-_view_details_1_">
    <g
       id="next_-_view_details">
      <g
         id="g3169">
        <path
           style="fill-rule:evenodd"
           inkscape:connector-curvature="0"
           clip-rule="evenodd"
           d="m 360.6,386.5 -1,-1 c 0,0 0,0 -0.1,0 l -8.6,-8.8 c -0.8,-0.8 -2.2,-0.8 -3,0 l -1,1 c -0.8,0.8 -0.8,2.2 0,3.1 l 7.2,7.3 -7.2,7.3 c -0.8,0.8 -0.8,2.2 0,3.1 l 1,1 c 0.8,0.8 2.2,0.8 3,0 l 8.6,-8.8 c 0,0 0,0 0.1,0 l 1,-1 c 0.4,-0.4 0.6,-1 0.6,-1.5 0,-0.7 -0.2,-1.3 -0.6,-1.7 z"
           id="path3171" />
      </g>
    </g>
  </g>
  <g
     transform="matrix(1.0322581,0,0,1.0322581,-411.7819,-428.05378)"
     id="view_stop_details">
    <path
       inkscape:connector-curvature="0"
       d="m 292.2,389.1 c 0,0 0,0 0,0 0.1,-0.4 0.2,-0.7 0.2,-1.1 0,-0.4 -0.1,-0.7 -0.2,-1.1 0,0 0,0 0,0 -0.1,-0.4 -0.4,-0.7 -0.6,-0.9 l -9.7,-9.6 c -1.1,-1.1 -3,-1.1 -4.1,0 -1.1,1.1 -1.1,2.9 0,4.1 l 4.7,4.7 h -18.2 c -1.6,0 -2.9,1.3 -2.9,2.9 0,1.6 1.3,2.9 2.9,2.9 h 18.2 l -4.7,4.7 c -1.1,1.1 -1.1,3 0,4.1 0.6,0.6 1.3,0.8 2.1,0.8 0.7,0 1.5,-0.3 2.1,-0.8 l 9.7,-9.6 c 0.1,-0.4 0.4,-0.7 0.5,-1.1 z"
       id="path3174" />
  </g>
  <g
     transform="matrix(0.58181818,0,0,0.58181818,-468.90964,-301.40368)"
     id="tick_-_check_box_1_">
    <path
       inkscape:connector-curvature="0"
       id="tick_-_check_box"
       d="m 427.9,281.8 c -15.2,0 -27.5,12.3 -27.5,27.5 0,15.2 12.3,27.5 27.5,27.5 15.2,0 27.5,-12.3 27.5,-27.5 0,-15.2 -12.3,-27.5 -27.5,-27.5 z m 13.8,21.9 -15.1,15.3 c -0.4,0.4 -0.8,0.6 -1.4,0.6 -0.5,0 -1,-0.2 -1.4,-0.6 l -9.8,-9.1 c -0.4,-0.4 -0.6,-0.8 -0.6,-1.3 0,-0.5 0.2,-1 0.6,-1.3 l 1.4,-1.3 c 0.4,-0.4 0.9,-0.6 1.4,-0.6 0.5,0 1,0.2 1.4,0.6 l 7.1,6.5 12.4,-12.8 c 0.4,-0.4 0.8,-0.6 1.4,-0.6 h 0 c 0.5,0 1,0.3 1.4,0.6 l 1.4,1.4 c 0.6,0.6 0.6,1.9 -0.2,2.6 z" />
  </g>
  <g
     transform="matrix(0.58181818,0,0,0.58181818,-424.98236,-207.40368)"
     id="check_box_1_">
    <path
       inkscape:connector-curvature="0"
       id="check_box_2_"
       d="m 352.4,281.8 c -15.2,0 -27.5,12.3 -27.5,27.5 0,15.2 12.3,27.5 27.5,27.5 15.2,0 27.5,-12.3 27.5,-27.5 0,-15.2 -12.3,-27.5 -27.5,-27.5 z m 0,51.5 c -13.3,0 -24,-10.7 -24,-24 0,-13.3 10.7,-24 24,-24 13.3,0 24,10.7 24,24 0,13.3 -10.7,24 -24,24 z" />
  </g>
  <g
     transform="translate(-518.97769,-46.084414)"
     id="icomoon-ignore-1">
    <line
       style="stroke:#449fdb;stroke-width:1"
       x1="0"
       y1="0"
       x2="0"
       y2="0"
       opacity=""
       id="line3264-7" />
  </g>
  <g
     transform="matrix(0.49665085,0.50893703,-0.50893703,0.49665085,-82.030142,-439.03686)"
     id="bus_location-4">
    <circle
       d="m 297,447.70001 c 0,11.0457 -8.95431,20 -20,20 -11.04569,0 -20,-8.9543 -20,-20 0,-11.04569 8.95431,-20 20,-20 11.04569,0 20,8.95431 20,20 z"
       sodipodi:ry="20"
       sodipodi:rx="20"
       sodipodi:cy="447.70001"
       sodipodi:cx="277"
       cx="277"
       cy="447.70001"
       r="20"
       id="circle3181-0" />
    <path
       style="fill:#ffffff"
       inkscape:connector-curvature="0"
       d="m 277,425.2 c -12.4,0 -22.5,10.1 -22.5,22.5 0,12.4 10.1,22.5 22.5,22.5 12.4,0 22.5,-10.1 22.5,-22.5 0,-12.4 -10.1,-22.5 -22.5,-22.5 z m 0,42.5 c -11,0 -20,-9 -20,-20 0,-11 9,-20 20,-20 11,0 20,9 20,20 0,11 -8.9,20 -20,20 z"
       id="path3183-9" />
    <path
       style="fill:#ffffff"
       inkscape:connector-curvature="0"
       d="m 267,438.3 10.6,22 1.5,-9.9 9.9,-1.4 -22,-10.7 z"
       id="path3185-4" />
  </g>
</svg>
