<?xml version="1.0" encoding="utf-8"?>
<!-- Generator: Adobe Illustrator 18.1.1, SVG Export Plug-In . SVG Version: 6.00 Build 0)  -->
<svg version="1.1"
	 id="Layer_1" xmlns:rdf="http://www.w3.org/1999/02/22-rdf-syntax-ns#" xmlns:dc="http://purl.org/dc/elements/1.1/" xmlns:sodipodi="http://sodipodi.sourceforge.net/DTD/sodipodi-0.dtd" xmlns:svg="http://www.w3.org/2000/svg" xmlns:inkscape="http://www.inkscape.org/namespaces/inkscape" xmlns:cc="http://creativecommons.org/ns#" inkscape:version="0.48.5 r10040" sodipodi:docname="logo-at-desktop-lg.svg"
	 xmlns="http://www.w3.org/2000/svg" xmlns:xlink="http://www.w3.org/1999/xlink" x="0px" y="0px" viewBox="-238.5 383.5 27 27"
	 enable-background="new -238.5 383.5 27 27" xml:space="preserve">
<sodipodi:namedview  gridtolerance="10" objecttolerance="10" id="namedview23" pagecolor="#ffffff" borderopacity="1" inkscape:cx="-0.34322034" bordercolor="#666666" guidetolerance="10" inkscape:zoom="4.3703704" showgrid="false" inkscape:cy="27" inkscape:current-layer="Layer_1" inkscape:window-maximized="1" inkscape:window-y="-8" inkscape:window-x="1912" inkscape:pageopacity="0" inkscape:window-height="1138" inkscape:window-width="1920" inkscape:pageshadow="2">
	</sodipodi:namedview>
<g id="g3" transform="scale(1.4814815,1.4814815)">
	<g>
		<defs>
			<rect id="SVGID_1_" x="-165.4" y="254.5" width="27" height="27"/>
		</defs>
		<clipPath id="SVGID_2_">
			<use xlink:href="#SVGID_1_"  overflow="visible"/>
		</clipPath>
		<path id="path11" inkscape:connector-curvature="0" clip-path="url(#SVGID_2_)" fill="#FFFFFF" d="M-142.8,268
			c0,5-4.1,9.1-9.1,9.1c-5,0-9.1-4.1-9.1-9.1c0-5,4.1-9.1,9.1-9.1C-146.8,258.9-142.8,262.9-142.8,268"/>
	</g>
	<g>
		<defs>
			<rect id="SVGID_3_" x="-165.4" y="254.5" width="27" height="27"/>
		</defs>
		<clipPath id="SVGID_4_">
			<use xlink:href="#SVGID_3_"  overflow="visible"/>
		</clipPath>
		<path id="path13" inkscape:connector-curvature="0" clip-path="url(#SVGID_4_)" fill="#EE2E27" d="M-149.6,261.5
			c1.1,0.4,2.1,1.1,2.9,1.9h1.9c-1-1.5-2.5-2.7-4.2-3.3L-149.6,261.5z"/>
	</g>
	<g>
		<defs>
			<rect id="SVGID_5_" x="-165.4" y="254.5" width="27" height="27"/>
		</defs>
		<clipPath id="SVGID_6_">
			<use xlink:href="#SVGID_5_"  overflow="visible"/>
		</clipPath>
		<path id="path15" inkscape:connector-curvature="0" clip-path="url(#SVGID_6_)" fill="#87AA3E" d="M-155.4,275.6l0.6-1.4
			c0.9,0.4,1.9,0.7,2.9,0.7c0.8,0,1.6-0.1,2.3-0.4l0.6,1.4c-0.9,0.3-1.8,0.5-2.8,0.5C-153.1,276.3-154.3,276.1-155.4,275.6"/>
	</g>
	<g>
		<defs>
			<rect id="SVGID_7_" x="-165.4" y="254.5" width="27" height="27"/>
		</defs>
		<clipPath id="SVGID_8_">
			<use xlink:href="#SVGID_7_"  overflow="visible"/>
		</clipPath>
		<path id="path17" inkscape:connector-curvature="0" clip-path="url(#SVGID_8_)" fill="#428FBF" d="M-155.4,275.6l0.6-1.4
			c-0.8-0.4-1.6-1-2.2-1.7h-1.9C-158,273.8-156.8,274.9-155.4,275.6"/>
	</g>
	<g>
		<defs>
			<rect id="SVGID_9_" x="-165.4" y="254.5" width="27" height="27"/>
		</defs>
		<clipPath id="SVGID_10_">
			<use xlink:href="#SVGID_9_"  overflow="visible"/>
		</clipPath>
		<path id="path19" inkscape:connector-curvature="0" clip-path="url(#SVGID_10_)" fill="#17232F" d="M-155.5,264.2
			c-0.1,0-0.6,0.1-0.8,0.5l-2.2,5.3c-0.2-0.6-0.3-1.3-0.3-2c0-3.8,3.1-6.8,6.8-6.8c0.8,0,1.6,0.1,2.3,0.4l0.6-1.4
			c-0.9-0.3-1.8-0.5-2.8-0.5c-4.6,0-8.4,3.7-8.4,8.4c0,1.4,0.3,2.7,0.9,3.8l2.4,0l0.6-1.4h2.8l0.3,0.7c0.2,0.4,0.5,0.7,1,0.7h1.6
			l-3.1-7.6H-155.5z M-155.6,268.5l0.7-1.6l0.7,1.6H-155.6z"/>
	</g>
	<g>
		<defs>
			<rect id="SVGID_11_" x="-165.4" y="254.5" width="27" height="27"/>
		</defs>
		<clipPath id="SVGID_12_">
			<use xlink:href="#SVGID_11_"  overflow="visible"/>
		</clipPath>
		<path id="path21" inkscape:connector-curvature="0" clip-path="url(#SVGID_12_)" fill="#17232F" d="M-144.4,264.2h-5.7
			c-0.1,0-0.7,0.1-0.9,0.6l-0.5,1.3h1.7l-1.2,3l1.1,2.7l2.4-5.7h2.3c0.2,0.6,0.3,1.3,0.3,1.9c0,3-1.9,5.5-4.6,6.5l0.6,1.4
			c3.2-1.2,5.5-4.2,5.5-7.9C-143.5,266.6-143.8,265.3-144.4,264.2"/>
	</g>
</g>
</svg>
